<svg width="48" height="19" viewBox="0 0 48 19" fill="none" xmlns="http://www.w3.org/2000/svg">
<path d="M9.44544 3.66696C10.7514 3.66696 11.7518 4.17197 12.4466 5.18199L12.3694 5.23024C12.3179 5.26884 12.2632 5.31065 12.2053 5.35569C12.1474 5.39429 12.0734 5.45218 11.9834 5.52938C11.8997 5.60015 11.8161 5.68378 11.7325 5.78028C11.6488 5.87035 11.5588 5.97328 11.4623 6.08908C11.3722 6.19844 11.2886 6.32711 11.2114 6.47507C11.1406 6.6166 11.0731 6.76779 11.0087 6.92862C10.9508 7.08301 10.9026 7.25993 10.864 7.45936C10.8318 7.65879 10.8157 7.86144 10.8157 8.0673C10.8157 8.4919 10.8865 8.88754 11.028 9.25424C11.1696 9.6145 11.3304 9.904 11.5105 10.1227C11.6906 10.3415 11.8901 10.5345 12.1088 10.7017C12.3275 10.869 12.4916 10.9816 12.601 11.0395C12.7168 11.0974 12.7972 11.1327 12.8422 11.1456C12.8293 11.1971 12.7907 11.3097 12.7264 11.4834C12.6685 11.6571 12.5527 11.924 12.379 12.2843C12.2117 12.6446 12.022 12.9855 11.8097 13.3072C11.6038 13.6031 11.4333 13.8379 11.2982 14.0116C11.1631 14.1789 10.9926 14.3655 10.7868 14.5713C10.5809 14.7772 10.3654 14.9284 10.1402 15.0249C9.9215 15.1214 9.68991 15.1696 9.44544 15.1696C9.11091 15.1696 8.71527 15.0699 8.25851 14.8705C7.80175 14.671 7.37072 14.5713 6.96542 14.5713C6.55369 14.5713 6.10337 14.6743 5.61444 14.8801C5.12551 15.086 4.7363 15.1889 4.4468 15.1889C4.02221 15.1889 3.63621 15.0313 3.28882 14.7161C2.94785 14.4008 2.54899 13.9183 2.09223 13.2686C1.62904 12.606 1.24626 11.8211 0.943895 10.914C0.647965 10.0005 0.5 9.10306 0.5 8.2217C0.5 7.51404 0.609365 6.8675 0.828096 6.28207C1.04683 5.69665 1.33632 5.22059 1.69659 4.85389C2.05685 4.4872 2.46214 4.20413 2.91247 4.0047C3.3628 3.80527 3.82921 3.70556 4.3117 3.70556C4.67197 3.70556 5.12551 3.81492 5.67234 4.03365C6.2256 4.25238 6.59229 4.36175 6.77242 4.36175C6.92682 4.36175 7.30317 4.24595 7.90146 4.01435C8.49975 3.78275 9.01441 3.66696 9.44544 3.66696ZM8.9147 2.42212C8.65737 2.73092 8.33249 2.98825 7.94006 3.19411C7.55407 3.39998 7.19059 3.50291 6.84962 3.50291C6.77886 3.50291 6.71131 3.49647 6.64698 3.48361C6.62768 3.40641 6.61803 3.31313 6.61803 3.20376C6.61803 2.83707 6.69844 2.47037 6.85927 2.10367C7.0201 1.73698 7.21632 1.41853 7.44792 1.14834C7.72455 0.826673 8.06873 0.559693 8.48045 0.347396C8.89862 0.128665 9.29748 0.0128665 9.67704 0C9.69634 0.0836323 9.70599 0.183348 9.70599 0.299146C9.70599 1.0647 9.44223 1.77236 8.9147 2.42212Z" fill="white"/>
<path d="M16.6354 1.09044H22.2516C23.6412 1.09044 24.767 1.52468 25.6291 2.39317C26.4976 3.26166 26.9318 4.39713 26.9318 5.79958C26.9318 7.1763 26.4847 8.29568 25.5905 9.15774C24.7027 10.0198 23.5544 10.4508 22.1455 10.4508H19.1251V15.0152H16.6354V1.09044ZM19.1251 3.17481V8.38575H21.5858C22.48 8.38575 23.1716 8.16059 23.6605 7.71026C24.1559 7.25993 24.4036 6.62304 24.4036 5.79958C24.4036 4.95039 24.1591 4.30063 23.6702 3.8503C23.1877 3.39998 22.4961 3.17481 21.5955 3.17481H19.1251Z" fill="white"/>
<path d="M31.6032 13.3072C32.3237 13.3072 32.9252 13.1013 33.4077 12.6896C33.8902 12.2714 34.1315 11.7568 34.1315 11.1456V10.3061L31.7479 10.4605C30.4356 10.5441 29.7794 11.0202 29.7794 11.8887C29.7794 12.3261 29.9466 12.6735 30.2812 12.9308C30.6221 13.1817 31.0628 13.3072 31.6032 13.3072ZM30.8987 15.1889C29.8694 15.1889 29.0299 14.8994 28.3801 14.3204C27.7304 13.7414 27.4055 12.9759 27.4055 12.0238C27.4055 11.0716 27.7497 10.3254 28.438 9.78498C29.1328 9.24459 30.1235 8.93579 31.4102 8.85859L34.1315 8.69455V7.80676C34.1315 7.28566 33.961 6.8868 33.62 6.61017C33.2791 6.33354 32.7869 6.19523 32.1436 6.19523C31.5903 6.19523 31.1336 6.29172 30.7733 6.48472C30.413 6.67129 30.1782 6.94148 30.0689 7.29531H27.8108C27.9073 6.36249 28.3576 5.62267 29.1618 5.07584C29.9724 4.52258 31.0049 4.24595 32.2594 4.24595C33.6104 4.24595 34.6526 4.55796 35.3859 5.18199C36.1258 5.80601 36.4957 6.68094 36.4957 7.80676V15.0152H34.1894V13.5677H34.0253C33.7294 14.076 33.3048 14.4748 32.7515 14.7643C32.2047 15.0474 31.5871 15.1889 30.8987 15.1889Z" fill="white"/>
<path d="M39.1599 18.8462C38.6645 18.8462 38.3493 18.8334 38.2142 18.8076V16.8487C38.3364 16.8744 38.5551 16.8873 38.8704 16.8873C39.3786 16.8873 39.7807 16.7811 40.0766 16.5689C40.379 16.3566 40.6073 16.0092 40.7617 15.5267L40.8872 15.0635L37.1141 4.45825H39.7389L42.2092 12.6992H42.3733L44.834 4.45825H47.3623L43.5506 15.353C43.1067 16.6589 42.5598 17.566 41.9101 18.0742C41.2668 18.5889 40.35 18.8462 39.1599 18.8462Z" fill="white"/>
</svg>
